<?xml version="1.0" standalone="no"?>
<!DOCTYPE svg PUBLIC "-//W3C//DTD SVG 1.1//EN" "http://www.w3.org/Graphics/SVG/1.1/DTD/svg11.dtd" >
<svg xmlns="http://www.w3.org/2000/svg">
<metadata></metadata>
<defs>
<font id="karnivorebold" horiz-adv-x="1325" >
<font-face units-per-em="2048" ascent="1638" descent="-410" />
<missing-glyph horiz-adv-x="921" />
<glyph horiz-adv-x="0" />
<glyph horiz-adv-x="682" />
<glyph horiz-adv-x="1132" d="M403 1294h308v308h-308v-308z" />
<glyph horiz-adv-x="1265" d="M301 1567l188 -121h271l194 121v370l-190 119h-270l-193 -119v-370zM532 1681v127l41 27h117l41 -27v-127l-41 -26h-117z" />
<glyph horiz-adv-x="1257" d="M301 1579l242 -225h164l237 225l-184 174l-137 -127l-136 127z" />
<glyph unicode="&#xd;" horiz-adv-x="1024" />
<glyph horiz-adv-x="1353" d="M35 0h377l905 1534h-377z" />
<glyph horiz-adv-x="1724" d="M96 0h1526v375h-1155v215h987l168 172v792h-1526v-372h1157v-217h-987l-170 -172v-793zM514 1841l260 -262h176l256 262l-198 203l-148 -148l-145 148z" />
<glyph d="M96 0h1127v375h-764v215h598l166 172v792h-1127v-372h762v-217h-596l-166 -172v-793zM319 1841l254 -262h172l254 262l-196 203l-144 -148l-143 148z" />
<glyph unicode=" "  horiz-adv-x="921" />
<glyph unicode="&#x09;" horiz-adv-x="921" />
<glyph unicode="&#xa0;" horiz-adv-x="921" />
<glyph unicode="!" horiz-adv-x="485" d="M80 0h307v369h-307v-369zM80 438h307v1098h-307v-1098z" />
<glyph unicode="&#x22;" horiz-adv-x="907" d="M92 938h348v410h-348v-410zM459 938h350v410h-350v-410z" />
<glyph unicode="#" horiz-adv-x="1734" d="M96 289h180l-59 -291h375l57 291h207l-59 -289h374l58 289h287v370h-216l43 209h289v371h-215l62 297h-375l-60 -297h-206l61 295h-375l-59 -295h-254v-371h180l-41 -209h-254v-370zM721 659l43 209h207l-41 -209h-209z" />
<glyph unicode="$" horiz-adv-x="1116" d="M94 752l164 -168h399v-66h-434v-371h154v-145h356v145h119l164 170v467l-164 168h-401v72h438v371h-156v145h-356v-145h-119l-164 -170v-473z" />
<glyph unicode="%" horiz-adv-x="1951" d="M98 754l170 -168h410l-352 -586h383l180 297v-127l170 -170h622l170 170v621l-170 167h-395l346 576h-383l-188 -313v153l-170 170h-623l-170 -170v-620zM469 954v222h219v-222h-219zM1260 369v221h219v-221h-219z" />
<glyph unicode="&#x26;" horiz-adv-x="1492" d="M96 170l168 -170h1018v584h148v368h-148v295h-367v-295h-452v215h389v369h-588l-168 -170v-1196zM463 369v215h452v-215h-452z" />
<glyph unicode="'" horiz-adv-x="485" d="M80 938h307v410h-307v-410z" />
<glyph unicode="(" horiz-adv-x="641" d="M82 23l151 -170h310v372h-131v1098h131v373h-310l-151 -170v-1503z" />
<glyph unicode=")" horiz-adv-x="641" d="M80 -147h309l152 170v1503l-152 170h-309v-373h131v-1098h-131v-372z" />
<glyph unicode="*" horiz-adv-x="1658" d="M57 586h342l-235 -236l260 -260l223 223v-311h371v320l225 -226l260 260l-229 230h319v368h-305l221 220l-262 262l-229 -232v334h-371v-328l-229 230l-260 -260l225 -226h-326v-368z" />
<glyph unicode="+" horiz-adv-x="1638" d="M51 584h590v-584h371v584h575v368h-575v584h-371v-584h-590v-368z" />
<glyph unicode="," horiz-adv-x="485" d="M80 0h123v-178l184 198v310h-307v-330z" />
<glyph unicode="-" horiz-adv-x="722" d="M47 485h623v308h-623v-308z" />
<glyph unicode="." horiz-adv-x="485" d="M80 0h307v307h-307v-307z" />
<glyph unicode="/" horiz-adv-x="665" d="M18 0h347l286 1536h-348z" />
<glyph unicode="0" horiz-adv-x="1323" d="M96 170l166 -170h795l166 170v1196l-166 170h-795l-166 -170v-1196zM459 369v798h399v-798h-399zM473 588h365v368h-365v-368z" />
<glyph unicode="1" horiz-adv-x="804" d="M90 1167h270v-1167h345v1366l-158 170h-457v-369z" />
<glyph unicode="2" horiz-adv-x="1323" d="M96 0h1118v369h-755v215h590l165 168v614l-165 170h-953v-369h756v-215h-590l-166 -168v-784z" />
<glyph unicode="3" d="M96 584h766v-215h-764v-369h961l168 170v467l-129 131l129 131v467l-168 170h-961v-369h764v-215h-766v-368z" />
<glyph unicode="4" d="M96 752l166 -168h600v-584h365v1536h-365v-584h-403v584h-363v-784z" />
<glyph unicode="5" d="M96 0h959l166 170v614l-166 168h-596v215h762v369h-1125v-784l166 -168h596v-215h-762v-369z" />
<glyph unicode="6" d="M96 170l166 -170h795l166 170v614l-166 168h-598v215h764v369h-961l-166 -170v-1196zM459 369v215h399v-215h-399z" />
<glyph unicode="7" d="M96 1167l762 2v-1167h363v1366l-166 170l-959 -2v-369z" />
<glyph unicode="8" d="M96 170l166 -170h799l168 170v467l-129 131l129 131v467l-168 170h-799l-166 -170v-467l127 -131l-127 -131v-467zM459 369v215h405v-215h-405zM459 952v215h405v-215h-405z" />
<glyph unicode="9" horiz-adv-x="1323" d="M96 0h959l166 170v1196l-166 170h-793l-166 -170v-614l166 -168h596v-215h-762v-369zM459 952v215h399v-215h-399z" />
<glyph unicode=":" horiz-adv-x="485" d="M80 0h307v365h-307v-365zM80 864h307v365h-307v-365z" />
<glyph unicode=";" horiz-adv-x="485" d="M80 0h123v-199l184 222v344h-307v-367zM80 870h307v367h-307v-367z" />
<glyph unicode="&#x3c;" horiz-adv-x="874" d="M57 680l711 -629v496l-315 248l315 188v483l-711 -546v-240z" />
<glyph unicode="=" horiz-adv-x="1734" d="M96 281h1536v356h-1536v-356zM96 840h1536v358h-1536v-358z" />
<glyph unicode="&#x3e;" horiz-adv-x="874" d="M92 51l711 629v240l-711 546v-483l316 -188l-316 -248v-496z" />
<glyph unicode="?" horiz-adv-x="1116" d="M94 0h357v369h-357v-369zM94 438h357v146h401l164 168v614l-164 170h-758v-369h563v-215h-399l-164 -168v-346z" />
<glyph unicode="@" horiz-adv-x="1630" d="M96 20l369 -256v1510h700v-209h-415l-168 -170v-723l168 -170h782v1475l-168 170h-1098l-170 -170v-1457zM950 377v315h215v-315h-215z" />
<glyph unicode="A" horiz-adv-x="1722" d="M96 0h371v584h784v-584h369v1366l-168 170h-1186l-170 -170v-1366zM467 952v215h784v-215h-784z" />
<glyph unicode="B" horiz-adv-x="1722" d="M96 0h1356l168 170v467l-129 131l129 131v467l-168 170h-1356v-1536zM467 369v215h784v-215h-784zM467 952v215h784v-215h-784z" />
<glyph unicode="C" horiz-adv-x="1722" d="M96 170l170 -170h1354v369h-1153v798h1153v371l-1354 -2l-170 -170v-1196z" />
<glyph unicode="D" horiz-adv-x="1722" d="M96 0h1356l168 170v1196l-168 170h-1356v-1536zM467 369v798h784v-798h-784z" />
<glyph unicode="E" horiz-adv-x="1724" d="M96 170l170 -170h1356v369h-1155v215h1155v368h-1155v215h1155v369h-1356l-170 -170v-1196z" />
<glyph unicode="F" horiz-adv-x="1724" d="M96 0h371v584h1155v368h-1155v215h1155v369h-1356l-170 -170v-1366z" />
<glyph unicode="G" horiz-adv-x="1581" d="M96 170l168 -170h1215v952h-801v-368h434v-215h-647v798h1014v369h-1215l-168 -170v-1196z" />
<glyph unicode="H" horiz-adv-x="1730" d="M96 0h371v584h793v-584h368v1536h-368v-584h-793v584h-371v-1536z" />
<glyph unicode="I" horiz-adv-x="485" d="M80 0h307v1536h-307v-1536z" />
<glyph unicode="J" horiz-adv-x="1275" d="M94 0h916l164 170v1366h-361v-1167h-719v-369z" />
<glyph unicode="K" horiz-adv-x="1730" d="M96 0h371v584h793v-584h368v637l-129 131l129 131v637h-368v-584h-793v584h-371v-1536z" />
<glyph unicode="L" horiz-adv-x="1122" d="M94 170l164 -170h764v369h-569v1167h-359v-1366z" />
<glyph unicode="M" horiz-adv-x="1730" d="M96 0h371v1167h209v-1167h371v1167h213v-1167h368v1366l-168 170h-1364v-1536z" />
<glyph unicode="N" horiz-adv-x="1730" d="M96 0h371v1167h793v-1171h368v1370l-168 170h-1364v-1536z" />
<glyph unicode="O" horiz-adv-x="1724" d="M96 170l170 -170h1188l168 170v1196l-168 170h-1188l-170 -170v-1196zM467 369v798h786v-798h-786z" />
<glyph unicode="P" horiz-adv-x="1724" d="M96 0h371v584h987l168 168v614l-168 170h-1358v-1536zM467 952v215h786v-215h-786z" />
<glyph unicode="Q" horiz-adv-x="1722" d="M96 170l170 -170h410v-289h371v289h405l168 170v1208l-168 170h-1186l-170 -170v-1208zM467 373v803h784v-803h-784z" />
<glyph unicode="R" horiz-adv-x="1724" d="M96 0h371v584h786v-584h369v637l-129 131l129 131v467l-168 170h-1358v-1536zM467 952v215h786v-215h-786z" />
<glyph unicode="S" horiz-adv-x="1716" d="M96 0h1350l168 170v614l-168 168h-979v215h1147v369h-1348l-170 -170v-614l170 -168h979v-215h-1149v-369z" />
<glyph unicode="T" horiz-adv-x="1730" d="M96 1167l590 2v-1167h369v1167h573v369l-1532 -2v-369z" />
<glyph unicode="U" horiz-adv-x="1728" d="M96 170l170 -170h1192l168 170v1366h-369v-1167h-790v1167h-371v-1366z" />
<glyph unicode="V" horiz-adv-x="1419" d="M96 0h1055l168 170v1366h-365v-1167h-493v1167h-365v-1536z" />
<glyph unicode="W" horiz-adv-x="1732" d="M96 170l170 -170h1364v1536h-368v-1167h-211v1167h-371v-1167h-213v1167h-371v-1366z" />
<glyph unicode="X" horiz-adv-x="1722" d="M96 0h371v584h784v-584h369v637l-129 131l129 131v637h-369v-584h-784v584h-371v-637l131 -131l-131 -131v-637z" />
<glyph unicode="Y" horiz-adv-x="1718" d="M96 752l170 -168h414v-584h369v584h399l168 168v784h-369v-584h-780v584h-371v-784z" />
<glyph unicode="Z" horiz-adv-x="1724" d="M96 0h1526v369h-1155v215h987l168 168v784h-1526v-369h1157v-215h-987l-170 -168v-784z" />
<glyph unicode="[" horiz-adv-x="647" d="M86 -147h461v372h-129v1098h129v373h-461v-1843z" />
<glyph unicode="\" horiz-adv-x="669" d="M10 1536l287 -1536h346l-285 1536h-348z" />
<glyph unicode="]" horiz-adv-x="647" d="M86 -147h461v1843h-461v-373h131v-1098h-131v-372z" />
<glyph unicode="^" horiz-adv-x="923" d="M10 1004l252 -238l199 188l198 -188l250 238l-334 319h-229z" />
<glyph unicode="_" horiz-adv-x="1232" d="M0 66v-308h1229v308h-1229z" />
<glyph unicode="`" horiz-adv-x="1177" d="M377 1579l235 -238l174 175l-235 237z" />
<glyph unicode="a" d="M96 0h363v584h399v-584h363v1366l-168 170h-791l-166 -170v-1366zM459 952v215h399v-215h-399z" />
<glyph unicode="b" d="M96 0h961l166 170v467l-129 131l129 131v467l-166 170h-961v-1536zM459 369v215h399v-215h-399zM459 952v215h399v-215h-399z" />
<glyph unicode="c" d="M96 170l166 -170h959v369h-762v798h762v369h-959l-166 -170v-1196z" />
<glyph unicode="d" horiz-adv-x="1329" d="M96 0h965l168 170v1196l-168 170h-965v-1536zM459 369v798h405v-798h-405z" />
<glyph unicode="e" horiz-adv-x="1323" d="M96 170l166 -170h955v369h-758v215h760v368h-760v215h758v369h-955l-166 -170v-1196z" />
<glyph unicode="f" horiz-adv-x="1323" d="M96 0h363v584h755v368h-755v215h753v371l-950 -2l-166 -170v-1366z" />
<glyph unicode="g" horiz-adv-x="1323" d="M96 170l166 -170h955v952h-596v-368h233v-215h-395v798h758v369h-955l-166 -170v-1196z" />
<glyph unicode="h" horiz-adv-x="1327" d="M96 0h363v584h393v-584h362v1536h-362v-584h-393v584h-363v-1536z" />
<glyph unicode="i" horiz-adv-x="485" d="M80 0h307v1536h-307v-1536z" />
<glyph unicode="j" horiz-adv-x="907" d="M92 0h549l160 170v1366h-348v-1167h-361v-369z" />
<glyph unicode="k" d="M96 0h363v584h399v-586h363v639l-129 131l129 131v635h-363v-582h-399v584h-363v-1536z" />
<glyph unicode="l" horiz-adv-x="905" d="M92 170l160 -170h547v369h-359v1167h-348v-1366z" />
<glyph unicode="m" horiz-adv-x="1531" d="M96 0h367v1167h119v-1167h366v1167h115v-1167h367v1366l-168 170h-1166v-1536z" />
<glyph unicode="n" d="M96 0h363v1167h399v-1167l365 -2v1368l-166 170h-961v-1536z" />
<glyph unicode="o" d="M96 170l166 -170h797l166 170v1196l-166 170h-797l-166 -170v-1196zM459 369v798h401v-798h-401z" />
<glyph unicode="p" horiz-adv-x="1323" d="M96 0h363v584h596l166 168v614l-166 170h-959v-1536zM459 952v215h399v-215h-399z" />
<glyph unicode="q" horiz-adv-x="1327" d="M96 170l166 -170h225v-289h363v289h209l166 170v1208l-166 170h-797l-166 -170v-1208zM459 373v803h401v-803h-401z" />
<glyph unicode="r" horiz-adv-x="1323" d="M96 0h363v584h399v-584h365v637l-129 131l129 131v467l-166 170h-961v-1536zM459 952v215h399v-215h-399z" />
<glyph unicode="s" horiz-adv-x="1323" d="M96 0h955l166 170v614l-166 168h-592v215h758v369h-955l-166 -170v-614l166 -168h592v-215h-758v-369z" />
<glyph unicode="t" d="M96 1167h387v-1167h363v1167h373v371l-1123 -2v-369z" />
<glyph unicode="u" horiz-adv-x="1323" d="M96 170l166 -170h797l168 170v1366h-365v-1167h-403v1167h-363v-1366z" />
<glyph unicode="v" horiz-adv-x="1216" d="M94 0h848l164 170v1366h-361v-1167h-290v1167h-361v-1536z" />
<glyph unicode="w" horiz-adv-x="1536" d="M96 170l168 -170h1168v1536h-367v-1167h-115v1167h-366v-1167h-121v1167h-367v-1366z" />
<glyph unicode="x" d="M96 0h363v584h403v-584h365v637l-129 131l129 131v637h-365v-584h-403v584h-363v-637l127 -131l-127 -131v-637z" />
<glyph unicode="y" d="M96 752l166 -168h213v-584h363v584h223l168 168v784h-365v-584h-405v584h-363v-784z" />
<glyph unicode="z" d="M96 0h1127v369h-764v215h598l166 168v784h-1127v-369h762v-215h-596l-166 -168v-784z" />
<glyph unicode="{" horiz-adv-x="804" d="M76 774l149 -162v-589l158 -170h322v372h-136v418l-120 131l120 131v418h136v373h-322l-158 -170v-588z" />
<glyph unicode="|" horiz-adv-x="485" d="M80 -201h307v1950h-307v-1950z" />
<glyph unicode="}" horiz-adv-x="804" d="M90 -147h322l157 170v589l150 162l-150 164v588l-157 170h-322v-373h135v-418l121 -131l-121 -131v-418h-135v-372z" />
<glyph unicode="~" horiz-adv-x="1239" d="M12 1096l342 -318h234l186 172l203 -186l258 237l-344 320h-234l-188 -174l-201 188z" />
<glyph unicode="&#xa1;" horiz-adv-x="485" d="M80 -291h307v1098h-307v-1098zM80 874h307v371h-307v-371z" />
<glyph unicode="&#xa2;" horiz-adv-x="1005" d="M92 315l150 -168h131v-145h354v145h191v371h-472v506h472v371h-191v145h-354v-145h-117l-164 -170v-910z" />
<glyph unicode="&#xa3;" horiz-adv-x="1189" d="M59 381h191v-14h-189v-369h1067v369h-518v14h285v369h-285v34h285v369h-285v14h426v369h-622l-164 -170v-213h-191v-369h191v-34h-191v-369z" />
<glyph unicode="&#xa5;" d="M96 852l166 -170h213v-119h-377v-368h377v-195h363v195h381v368h-381v119h223l168 170v684h-365v-483h-405v483h-363v-684z" />
<glyph unicode="&#xa6;" horiz-adv-x="485" d="M80 -201h307v869h-307v-869zM80 983h307v766h-307v-766z" />
<glyph unicode="&#xa7;" horiz-adv-x="1323" d="M96 78v-373h955l166 172v1016l-166 170h-592v115h758v372h-955l-166 -170v-1015l166 -170h592v-117h-758zM459 567v115h395v-115h-395z" />
<glyph unicode="&#xa8;" horiz-adv-x="1671" d="M379 1294h356v308h-356v-308zM928 1294h356v308h-356v-308z" />
<glyph unicode="&#xa9;" horiz-adv-x="1724" d="M96 170l170 -170h1188l168 170v1196l-168 170h-1188l-170 -170v-1196zM467 369v798h197l-168 -168v-467l163 -163h-192zM864 733v66h365v368h24v-798h-24v364h-365z" />
<glyph unicode="&#xaa;" horiz-adv-x="1736" d="M96 170l170 -170h1200l168 170v1196l-168 170h-1200l-170 -170v-1196zM467 369v798h799v-798h-799zM680 584l373 2v368l-373 -2v-368z" />
<glyph unicode="&#xab;" horiz-adv-x="1249" d="M70 631l340 -336l256 252l-203 198l203 199l-256 250l-340 -334v-229zM600 633l342 -336l256 252l-203 199l203 198l-256 250l-342 -336v-227z" />
<glyph unicode="&#xac;" horiz-adv-x="2091" d="M57 1255h176v109h140v-514h-267v-850h1616q119 0 205 55q105 64 105 189q0 137 -117 202q68 61 67 162q0 70 -34 121v297h-166v-176h-488v358h-442v156h102v170h-876zM276 168v514h269v682h127v-328h446v-184h-102v-170h18l113 -276h-336l-74 -164h473l31 -74h-965z M672 438h196v414h-196v-414zM1210 682h453q141 0 141 -78q0 -33 -39 -57q-35 -25 -84 -25h-256v-170h234q192 0 192 -96q0 -90 -192 -90h-229zM1296 1036h293v-96h170v360h-170v-96h-119v158h295l15 -172h166v342h-650v-496z" />
<glyph unicode="&#xad;" horiz-adv-x="722" d="M47 485h623v308h-623v-308z" />
<glyph unicode="&#xae;" horiz-adv-x="1724" d="M96 170l170 -170h1188l168 170v1196l-168 170h-1188l-170 -170v-1196zM467 369v798h197l-168 -168v-630h-29zM864 369v430h365v368h24v-798h-389z" />
<glyph unicode="&#xaf;" horiz-adv-x="1257" d="M313 1294h623v308h-623v-308z" />
<glyph unicode="&#xb0;" horiz-adv-x="854" d="M94 938l191 -121h270l193 121v369l-189 120h-272l-193 -120v-369zM362 1083v78l21 15h74l24 -15v-78l-20 -12h-78z" />
<glyph unicode="&#xb1;" horiz-adv-x="1736" d="M96 0h1538v369h-1538v-369zM98 780h592v-397h369v397h575v369h-575v387h-369v-387h-592v-369z" />
<glyph unicode="&#xb2;" horiz-adv-x="1724" d="M96 0h1526v369h-1155v215h987l168 168v614l-168 170h-1358v-369h1157v-215h-987l-170 -168v-784z" />
<glyph unicode="&#xb3;" horiz-adv-x="1734" d="M96 584h1168v-215h-1164v-369h1364l168 170v467l-129 131l129 131v467l-168 170h-1364v-369h1164v-215h-1168v-368z" />
<glyph unicode="&#xb4;" horiz-adv-x="1177" d="M377 1516l174 -175l235 238l-174 174z" />
<glyph unicode="&#xb5;" horiz-adv-x="1734" d="M96 752l170 -168h998v-584h368v1536h-368v-584h-797v584h-371v-784z" />
<glyph unicode="&#xb6;" horiz-adv-x="1323" d="M94 559l166 -170h123v-680h362v1260h111v-1258h363v1635h-959l-166 -170v-617z" />
<glyph unicode="&#xb7;" horiz-adv-x="1728" d="M96 0h1362l168 170v614l-168 168h-991v215h1159v369h-1530v-784l170 -168h991v-215h-1161v-369z" />
<glyph unicode="&#xb8;" horiz-adv-x="1132" d="M403 152v-410h308v410h-308z" />
<glyph unicode="&#xb9;" horiz-adv-x="1722" d="M96 170l170 -170h1186l168 170v614l-168 168h-985v215h1153v369h-1354l-170 -170v-1196zM467 369v215h784v-215h-784z" />
<glyph unicode="&#xba;" horiz-adv-x="1114" d="M94 643l164 -168h598l164 168v614l-164 168h-598l-164 -168v-614zM98 90h914v367h-914v-367zM451 842v217h211v-217h-211z" />
<glyph unicode="&#xbb;" horiz-adv-x="1249" d="M53 549l256 -252l342 336v227l-342 336l-256 -250l203 -198zM586 547l256 -252l342 336v229l-342 334l-256 -250l202 -199z" />
<glyph unicode="&#xbc;" horiz-adv-x="1712" d="M96 1167l1145 2v-1167h369v1366l-168 170l-1346 -2v-369z" />
<glyph unicode="&#xbd;" horiz-adv-x="1722" d="M96 170l170 -170h1186l168 170v467l-129 131l129 131v467l-168 170h-1186l-170 -170v-467l131 -131l-131 -131v-467zM467 369v215h784v-215h-784zM467 952v215h784v-215h-784z" />
<glyph unicode="&#xbe;" horiz-adv-x="1722" d="M96 0h1356l168 170v1196l-168 170h-1186l-170 -170v-614l170 -168h985v-215h-1155v-369zM467 952v215h784v-215h-784z" />
<glyph unicode="&#xbf;" horiz-adv-x="1116" d="M94 -123l164 -168h758v369h-565v213h401l164 170v346h-359v-145h-399l-164 -170v-615zM657 874h359v371h-359v-371z" />
<glyph unicode="&#xc0;" horiz-adv-x="1722" d="M96 0h371v590h784v-590h369v1384l-168 170h-1186l-170 -170v-1384zM467 965v217h784v-217h-784zM625 1841l270 -278l201 202l-273 279z" />
<glyph unicode="&#xc1;" horiz-adv-x="1722" d="M96 0h371v590h784v-590h369v1384l-168 170h-1186l-170 -170v-1384zM467 965v217h784v-217h-784zM623 1765l198 -202l273 278l-199 203z" />
<glyph unicode="&#xc2;" horiz-adv-x="1722" d="M96 0h371v590h784v-590h369v1384l-168 170h-1186l-170 -170v-1384zM467 965v217h784v-217h-784zM514 1765l201 -202l145 147l148 -147l198 202l-256 263h-176z" />
<glyph unicode="&#xc3;" horiz-adv-x="1722" d="M96 0h371v590h784v-590h369v1384l-168 170h-1186l-170 -170v-1384zM406 1841l260 -262h176l129 131l145 -147l199 202l-256 263h-176l-131 -134l-150 150zM467 965v217h784v-217h-784z" />
<glyph unicode="&#xc4;" horiz-adv-x="1722" d="M96 0h371v590h784v-590h369v1382l-168 170h-1186l-170 -170v-1382zM393 1573h369v373h-369v-373zM467 963v217h784v-217h-784zM961 1573h368v373h-368v-373z" />
<glyph unicode="&#xc5;" horiz-adv-x="1722" d="M96 0h371v592h784v-592h369v1389l-168 172h-1186l-170 -172v-1389zM467 969v217h784v-217h-784zM518 1716l203 -133h289l207 133v404l-203 131h-289l-207 -131v-404zM768 1839v139l43 29h123l45 -29v-139l-45 -27h-123z" />
<glyph unicode="&#xc6;" horiz-adv-x="2940" d="M100 0h377v584h803v-584h1561v369h-1182v215h1184v368h-1184v215h1182v369h-2569l-172 -170v-1366zM477 952v215h803v-215h-803z" />
<glyph unicode="&#xc7;" horiz-adv-x="1722" d="M96 170l170 -170h459v-289h369v289h526v373h-1153v803h1153v374l-1354 -2l-170 -170v-1208z" />
<glyph unicode="&#xc8;" horiz-adv-x="1724" d="M96 172l170 -172h1356v375h-1155v215h1155v375h-1155v217h1155v372h-1356l-170 -170v-1212zM680 1841l272 -278l201 202l-272 279z" />
<glyph unicode="&#xc9;" horiz-adv-x="1724" d="M96 172l170 -172h1356v375h-1155v215h1155v375h-1155v217h1155v372h-1356l-170 -170v-1212zM723 1765l201 -202l272 278l-201 203z" />
<glyph unicode="&#xca;" horiz-adv-x="1724" d="M96 172l170 -172h1356v375h-1155v215h1155v375h-1155v217h1155v372h-1356l-170 -170v-1212zM514 1765l201 -202l145 147l148 -147l198 202l-256 263h-176z" />
<glyph unicode="&#xcb;" horiz-adv-x="1724" d="M96 170l170 -170h1356v373h-1155v217h1155v373h-1155v217h1155v372h-1356l-170 -170v-1212zM436 1573h369v373h-369v-373zM1004 1573h368v373h-368v-373z" />
<glyph unicode="&#xcc;" horiz-adv-x="503" d="M39 1841l235 -278l175 202l-236 279zM84 0h322v1554h-322v-1554z" />
<glyph unicode="&#xcd;" horiz-adv-x="503" d="M37 1765l174 -202l235 278l-174 203zM82 0h319v1554h-319v-1554z" />
<glyph unicode="&#xce;" horiz-adv-x="534" d="M-57 1765l186 -202l135 147l135 -147l187 202l-240 263h-164zM90 0h344v1554h-344v-1554z" />
<glyph unicode="&#xcf;" horiz-adv-x="542" d="M-94 1573h350v373h-350v-373zM92 0h350v1552h-350v-1552zM281 1573h348v373h-348v-373z" />
<glyph unicode="&#xd0;" horiz-adv-x="1869" d="M37 586h199v-586h1361l170 170v1196l-170 170h-1361v-582h-199v-368zM606 369v217h494l2 368h-496v213h791v-798h-791z" />
<glyph unicode="&#xd1;" horiz-adv-x="1730" d="M96 0h371v1182h793v-1186h368v1388l-168 170h-1364v-1554zM406 1841l260 -262h176l129 131l145 -147l201 202l-258 263h-176l-131 -134l-150 150z" />
<glyph unicode="&#xd2;" horiz-adv-x="1724" d="M96 172l170 -172h1188l168 172v1212l-168 170h-1188l-170 -170v-1212zM467 375v807h786v-807h-786zM625 1841l272 -278l199 202l-273 279z" />
<glyph unicode="&#xd3;" horiz-adv-x="1724" d="M96 172l170 -172h1188l168 172v1212l-168 170h-1188l-170 -170v-1212zM467 375v807h786v-807h-786zM623 1765l198 -202l273 278l-199 203z" />
<glyph unicode="&#xd4;" horiz-adv-x="1724" d="M96 172l170 -172l1188 -2l168 172v1212l-168 170l-1188 2l-170 -170v-1212zM467 375v807l786 -2v-807zM514 1765l201 -202l145 147l148 -147l198 202l-256 263h-176z" />
<glyph unicode="&#xd5;" horiz-adv-x="1724" d="M96 172l170 -172h1188l168 172v1212l-168 170h-1188l-170 -170v-1212zM406 1841l260 -262h176l129 131l145 -147l201 202l-258 263h-176l-131 -134l-150 150zM467 375v807h786v-807h-786z" />
<glyph unicode="&#xd6;" horiz-adv-x="1724" d="M96 170l170 -170l1188 -2l168 172v1210l-168 170l-1188 2l-170 -170v-1212zM393 1573h369v373h-369v-373zM467 373v807l786 -2v-807zM961 1573h368v373h-368v-373z" />
<glyph unicode="&#xd7;" horiz-adv-x="1419" d="M41 1169l414 -413l-408 -410l258 -258l408 410l403 -404l258 258l-403 404l409 407l-258 260l-409 -409l-414 413z" />
<glyph unicode="&#xd8;" horiz-adv-x="1724" d="M96 170l170 -170h1188l168 170v1196l-168 170h-1188l-170 -170v-1196zM467 369v798h295l-160 -798h-135zM975 369l160 798h118v-798h-278z" />
<glyph unicode="&#xd9;" horiz-adv-x="1728" d="M96 172l170 -172h1192l168 172v1382h-369v-1179h-790v1179h-371v-1382zM625 1841l272 -278l199 202l-273 279z" />
<glyph unicode="&#xda;" horiz-adv-x="1728" d="M96 172l170 -172h1192l168 172v1382h-369v-1179h-790v1179h-371v-1382zM623 1765l200 -202l271 278l-199 203z" />
<glyph unicode="&#xdb;" horiz-adv-x="1728" d="M96 172l170 -172h1192l168 172v1382h-369v-1179h-790v1179h-371v-1382zM516 1765l199 -202l145 147l148 -147l198 202l-256 263h-176z" />
<glyph unicode="&#xdc;" horiz-adv-x="1728" d="M96 170l170 -170h1192l168 170v1382h-369v-1179h-790v1179h-371v-1382zM393 1573h369v373h-369v-373zM961 1573h368v373h-368v-373z" />
<glyph unicode="&#xdd;" horiz-adv-x="1718" d="M96 762l170 -172h414v-590h369v590h399l168 172v792h-369v-589h-780v589h-371v-792zM627 1757l198 -203l273 279l-201 203z" />
<glyph unicode="&#xde;" horiz-adv-x="1724" d="M96 0h371v291h983l168 170v614l-168 170h-983v291h-371v-1536zM467 662v212h782v-212h-782z" />
<glyph unicode="&#xdf;" horiz-adv-x="2658" d="M98 0h992l172 170v614l-172 168h-615v215h787v369h-990l-174 -170v-614l174 -168h615v-215h-789v-369zM1391 0h991l172 170v614l-172 168h-615v215h787v369h-989l-174 -170v-614l174 -168h614v-215h-788v-369z" />
<glyph unicode="&#xe0;" d="M96 0h363v590h399v-590h363v1384l-166 170h-793l-166 -170v-1384zM426 1841l266 -278l197 202l-266 279zM459 965v217h399v-217h-399z" />
<glyph unicode="&#xe1;" d="M96 0h363v590h399v-590h363v1384l-166 170h-793l-166 -170v-1384zM426 1765l197 -202l266 278l-197 203zM459 965v217h399v-217h-399z" />
<glyph unicode="&#xe2;" d="M96 0h363v590h399v-590h363v1384l-166 170h-793l-166 -170v-1384zM319 1765l197 -202l143 147l142 -147l196 202l-252 263h-172zM459 965v217h399v-217h-399z" />
<glyph unicode="&#xe3;" d="M96 0h363v590h399v-590h363v1384l-166 170h-793l-166 -170v-1384zM211 1841l254 -262h174l127 131l143 -147l197 202l-252 263h-174l-129 -134l-145 150zM459 965v217h399v-217h-399z" />
<glyph unicode="&#xe4;" d="M96 0h363v590h399v-590h363v1382l-166 170h-793l-166 -170v-1382zM199 1573h362v373h-362v-373zM459 963v217h399v-217h-399zM756 1573h362v373h-362v-373z" />
<glyph unicode="&#xe5;" d="M96 0h363v592h399v-592h363v1389l-168 172h-791l-166 -172v-1389zM315 1716l199 -133h285l200 133v404l-198 131h-283l-203 -131v-404zM459 969v217h399v-217h-399zM559 1839v139l43 29h121l45 -29v-139l-45 -27h-121z" />
<glyph unicode="&#xe6;" horiz-adv-x="2146" d="M98 0h373v584h412v-584l1157 2v369h-780v215h782v368h-782v215h780v369l-1772 -2l-170 -170v-1366zM471 952v215h412v-215h-412z" />
<glyph unicode="&#xe7;" d="M96 170l166 -170h273v-297h362v297h324v373h-762v803h762v372h-959l-166 -170v-1208z" />
<glyph unicode="&#xe8;" horiz-adv-x="1323" d="M96 172l166 -172h955v375h-758v215h760v375h-760v217h758v372h-955l-166 -170v-1212zM496 1841l268 -278l197 202l-269 279z" />
<glyph unicode="&#xe9;" horiz-adv-x="1323" d="M96 172l166 -172h955v375h-758v215h760v375h-760v217h758v372h-955l-166 -170v-1212zM512 1765l197 -202l266 278l-197 203z" />
<glyph unicode="&#xea;" horiz-adv-x="1323" d="M96 172l166 -172h955v375h-758v215h760v375h-760v217h758v372h-955l-166 -170v-1212zM319 1765l197 -202l143 147l142 -147l196 202l-252 263h-172z" />
<glyph unicode="&#xeb;" horiz-adv-x="1323" d="M96 170l166 -170h955v373h-758v217h760v373h-760v217h758v372h-955l-166 -170v-1212zM199 1573h362v373h-362v-373zM756 1573h362v373h-362v-373z" />
<glyph unicode="&#xec;" horiz-adv-x="503" d="M39 1841l235 -278l175 202l-236 279zM84 0h322v1554h-322v-1554z" />
<glyph unicode="&#xed;" horiz-adv-x="503" d="M37 1765l174 -202l235 278l-174 203zM82 0h319v1554h-319v-1554z" />
<glyph unicode="&#xee;" horiz-adv-x="534" d="M-57 1765l186 -202l135 147l135 -147l187 202l-240 263h-164zM90 0h344v1554h-344v-1554z" />
<glyph unicode="&#xef;" horiz-adv-x="542" d="M-94 1573h350v373h-350v-373zM92 0h350v1552h-350v-1552zM281 1573h348v373h-348v-373z" />
<glyph unicode="&#xf0;" horiz-adv-x="1329" d="M37 586h192v-586h830l168 170v1196l-168 170h-830v-582h-192v-368zM594 369v217h201l2 368h-203v213h268v-798h-268z" />
<glyph unicode="&#xf1;" d="M96 0h363v1182h399v-1182l365 -2v1386l-166 170h-961v-1554zM211 1841l254 -262h174l127 131l143 -147l197 202l-252 263h-174l-129 -134l-145 150z" />
<glyph unicode="&#xf2;" d="M96 172l166 -172h797l166 172v1212l-166 170h-797l-166 -170v-1212zM426 1841l266 -278l197 202l-266 279zM459 375v807h401v-807h-401z" />
<glyph unicode="&#xf3;" d="M96 172l166 -172h797l166 172v1212l-166 170h-797l-166 -170v-1212zM426 1765l197 -202l266 278l-197 203zM459 375v807h401v-807h-401z" />
<glyph unicode="&#xf4;" d="M96 172l166 -172h797l166 172v1212l-166 170h-797l-166 -170v-1212zM319 1765l197 -202l143 147l144 -147l196 202l-251 263h-175zM459 375v807h401v-807h-401z" />
<glyph unicode="&#xf5;" d="M96 172l166 -172h797l166 172v1212l-166 170h-797l-166 -170v-1212zM211 1841l254 -262h174l127 131l143 -147l197 202l-252 263h-174l-129 -134l-145 150zM459 375v807h401v-807h-401z" />
<glyph unicode="&#xf6;" d="M96 170l166 -170h797l166 170v1212l-166 170h-797l-166 -170v-1212zM199 1573h362v373h-362v-373zM459 373v807h401v-807h-401zM756 1573h362v373h-362v-373z" />
<glyph unicode="&#xf7;" horiz-adv-x="1638" d="M51 580h1536v366h-1536v-366zM631 96h368v367h-368v-367zM631 1063h368v367h-368v-367z" />
<glyph unicode="&#xf8;" d="M96 170l166 -170h797l166 170v1196l-166 170h-797l-166 -170v-1196zM459 678v489h94zM764 369l96 495v-495h-96z" />
<glyph unicode="&#xf9;" horiz-adv-x="1323" d="M96 172l166 -172h797l168 172v1382h-365v-1179h-403v1179h-363v-1382zM426 1841l266 -278l199 202l-268 279z" />
<glyph unicode="&#xfa;" horiz-adv-x="1323" d="M96 172l166 -172h797l168 172v1382h-365v-1179h-403v1179h-363v-1382zM426 1765l197 -202l268 278l-199 203z" />
<glyph unicode="&#xfb;" horiz-adv-x="1323" d="M96 172l166 -172h797l168 172v1382h-365v-1179h-403v1179h-363v-1382zM319 1765l197 -202l143 147l144 -147l196 202l-251 263h-175z" />
<glyph unicode="&#xfc;" horiz-adv-x="1323" d="M96 170l166 -170h797l168 170v1382h-365v-1179h-403v1179h-363v-1382zM199 1573h362v373h-362v-373zM756 1573h362v373h-362v-373z" />
<glyph unicode="&#xfd;" d="M96 762l166 -172h213v-590h363v590h223l168 172v792h-365v-589h-405v589h-363v-792zM426 1765l197 -202l268 278l-197 203z" />
<glyph unicode="&#xfe;" d="M96 0h363v291h602l168 170v614l-168 170h-602v291h-363v-1536zM459 662v212h405v-212h-405z" />
<glyph unicode="&#xff;" d="M96 760l166 -170h213v-590h363v590h223l168 170v792h-365v-589h-405v589h-363v-792zM199 1573h362v373h-362v-373zM756 1573h362v373h-362v-373z" />
<glyph unicode="&#x152;" horiz-adv-x="2940" d="M100 170l172 -170l2569 -2v369h-1180v215h1182v368h-1182v215h1180v369l-2569 2l-172 -170v-1196zM477 369v798l803 -4v-798z" />
<glyph unicode="&#x153;" horiz-adv-x="2144" d="M98 170l170 -170h1774v369h-780v215h782v368h-782v215h780v369h-1774l-170 -170v-1196zM471 369v798h416v-798h-416z" />
<glyph unicode="&#x178;" horiz-adv-x="1718" d="M96 760l170 -170h414v-590h369v590h399l168 170v792h-369v-589h-780v589h-371v-792zM393 1573h369v373h-369v-373zM961 1573h368v373h-368v-373z" />
<glyph unicode="&#x2c6;" horiz-adv-x="1609" d="M479 1516l187 -175l135 127l135 -127l186 175l-239 223h-164z" />
<glyph unicode="&#x2dc;" horiz-adv-x="1294" d="M207 1579l248 -225h170l125 114l139 -127l192 175l-247 223h-170l-125 -115l-144 129z" />
<glyph unicode="&#x2000;" horiz-adv-x="1125" />
<glyph unicode="&#x2001;" horiz-adv-x="2251" />
<glyph unicode="&#x2002;" horiz-adv-x="1125" />
<glyph unicode="&#x2003;" horiz-adv-x="2251" />
<glyph unicode="&#x2004;" horiz-adv-x="750" />
<glyph unicode="&#x2005;" horiz-adv-x="562" />
<glyph unicode="&#x2006;" horiz-adv-x="375" />
<glyph unicode="&#x2007;" horiz-adv-x="375" />
<glyph unicode="&#x2008;" horiz-adv-x="281" />
<glyph unicode="&#x2009;" horiz-adv-x="450" />
<glyph unicode="&#x200a;" horiz-adv-x="125" />
<glyph unicode="&#x2010;" horiz-adv-x="722" d="M47 485h623v308h-623v-308z" />
<glyph unicode="&#x2011;" horiz-adv-x="722" d="M47 485h623v308h-623v-308z" />
<glyph unicode="&#x2012;" horiz-adv-x="722" d="M47 485h623v308h-623v-308z" />
<glyph unicode="&#x2013;" horiz-adv-x="1425" d="M96 485h1229l2 308h-1231v-308z" />
<glyph unicode="&#x2014;" horiz-adv-x="1531" d="M96 485h1336l2 308h-1338v-308z" />
<glyph unicode="&#x2018;" horiz-adv-x="485" d="M80 938h307v410h-307v-410z" />
<glyph unicode="&#x2019;" horiz-adv-x="485" d="M80 938h307v410h-307v-410z" />
<glyph unicode="&#x201a;" horiz-adv-x="485" d="M80 -172h307v410h-307v-410z" />
<glyph unicode="&#x201c;" horiz-adv-x="907" d="M92 938h348v410h-348v-410zM459 938h350v410h-350v-410z" />
<glyph unicode="&#x201d;" horiz-adv-x="907" d="M92 938h348v410h-348v-410zM459 938h350v410h-350v-410z" />
<glyph unicode="&#x201e;" horiz-adv-x="907" d="M92 -172h348v410h-348v-410zM459 -172h350v410h-350v-410z" />
<glyph unicode="&#x2022;" horiz-adv-x="907" d="M92 561l158 -104h391l162 104v402l-158 104h-391l-162 -104v-402z" />
<glyph unicode="&#x2026;" horiz-adv-x="1531" d="M96 0h367v307h-367v-307zM586 0h366v307h-366v-307zM1067 -2h367v307h-367v-307z" />
<glyph unicode="&#x202f;" horiz-adv-x="450" />
<glyph unicode="&#x2039;" horiz-adv-x="684" d="M63 631l320 -336l238 252l-189 198l189 199l-238 250l-320 -336v-227z" />
<glyph unicode="&#x203a;" horiz-adv-x="684" d="M51 547l240 -252l317 336v227l-317 336l-240 -250l189 -199z" />
<glyph unicode="&#x205f;" horiz-adv-x="562" />
<glyph unicode="&#x20ac;" horiz-adv-x="1124" d="M70 381h118v-199l156 -184h719v369h-514v14h354v369h-354v34h354v369h-354v14h512v369h-707l-166 -170v-213h-118v-369h118v-34h-118v-369z" />
<glyph unicode="&#x2122;" horiz-adv-x="2080" d="M51 1128h203v-563h373v563h190v361l-766 -2v-359zM840 565h372v563h25v-563h373v563h24v-563h373v758l-172 164h-995v-922z" />
<glyph unicode="&#x25fc;" horiz-adv-x="1536" d="M0 0v1536h1536v-1536h-1536z" />
</font>
</defs>
</svg>
