<?xml version="1.0" standalone="no"?>
<!DOCTYPE svg PUBLIC "-//W3C//DTD SVG 1.1//EN" "http://www.w3.org/Graphics/SVG/1.1/DTD/svg11.dtd" >
<svg xmlns="http://www.w3.org/2000/svg">
<metadata></metadata>
<defs>
<font id="karnivoreregular" horiz-adv-x="1333" >
<font-face units-per-em="2048" ascent="1638" descent="-410" />
<missing-glyph horiz-adv-x="921" />
<glyph horiz-adv-x="0" />
<glyph horiz-adv-x="682" />
<glyph horiz-adv-x="1331" d="M512 1638h307v308h-307v-308z" />
<glyph horiz-adv-x="1331" d="M338 1759l184 -119h281l188 119v375l-184 117h-281l-188 -117v-375zM518 1843v189l74 49h158l73 -49v-189l-75 -47h-156z" />
<glyph d="M358 1874l232 -232h153l230 232l-154 154l-153 -154l-154 154z" />
<glyph unicode="&#xd;" horiz-adv-x="1024" />
<glyph horiz-adv-x="1357" d="M68 0h307l917 1534h-307z" />
<glyph horiz-adv-x="1730" d="M102 0h1526v307h-1218v307h1065l153 154v768h-1526v-307h1219v-307h-1065l-154 -154v-768zM559 1874l232 -232h153l230 232l-154 154l-154 -154l-153 154z" />
<glyph d="M102 0h1127v307h-819v307h665l154 154v768h-1127v-307h820v-307h-666l-154 -154v-768zM358 1874l232 -232h153l230 232l-154 154l-153 -154l-154 154z" />
<glyph unicode=" "  horiz-adv-x="921" />
<glyph unicode="&#x09;" horiz-adv-x="921" />
<glyph unicode="&#xa0;" horiz-adv-x="921" />
<glyph unicode="!" horiz-adv-x="512" d="M102 0h308v307h-308v-307zM102 461h308v1075h-308v-1075z" />
<glyph unicode="&#x22;" horiz-adv-x="919" d="M102 1126h308v410h-308v-410zM512 1126h307v410h-307v-410z" />
<glyph unicode="#" horiz-adv-x="1740" d="M102 305h199l-61 -307h307l61 307h303l-61 -305h307l62 305h294v307h-233l59 303h299v308h-237l63 313h-307l-63 -313h-303l63 311h-307l-64 -311h-262v-308h201l-60 -303h-260v-307zM670 612l59 303h303l-59 -303h-303z" />
<glyph unicode="$" horiz-adv-x="1126" d="M102 768l154 -154h461v-151h-473v-307h166v-154h307v154h153l154 153v459l-154 154h-460v157h477v307h-170v154h-307v-154h-154l-154 -153v-465z" />
<glyph unicode="%" horiz-adv-x="1957" d="M102 770l154 -154h483l-368 -616h307l252 420v-266l153 -154h619l153 154v620l-153 154h-469l362 606h-307l-260 -436v293l-154 153h-618l-154 -153v-621zM410 924v313h311v-313h-311zM1237 307v314h311v-314h-311z" />
<glyph unicode="&#x26;" horiz-adv-x="1497" d="M102 154l154 -154h1022v614h158v308h-158v311h-307v-311h-561v307h413v307h-567l-154 -154v-1228zM410 307v307h561v-307h-561z" />
<glyph unicode="'" horiz-adv-x="512" d="M102 1126h308v410h-308v-410z" />
<glyph unicode="(" horiz-adv-x="659" d="M96 0l154 -154h307v308h-154v1228h154v308h-307l-154 -154v-1536z" />
<glyph unicode=")" horiz-adv-x="659" d="M94 -154h307l154 154v1536l-154 154h-307v-308h154v-1228h-154v-308z" />
<glyph unicode="*" horiz-adv-x="1660" d="M59 616h418l-289 -288l218 -217l276 276v-385h307v393l279 -278l217 217l-283 282h393v308h-376l272 272l-217 217l-285 -285v410h-307v-401l-283 282l-217 -217l279 -278h-402v-308z" />
<glyph unicode="+" horiz-adv-x="1640" d="M53 614h623v-614h307v614h606v308h-606v614h-307v-614h-623v-308z" />
<glyph unicode="," horiz-adv-x="512" d="M102 0h154v-154l154 154v307h-308v-307z" />
<glyph unicode="-" horiz-adv-x="724" d="M53 614h623v308h-623v-308z" />
<glyph unicode="." horiz-adv-x="512" d="M102 0h308v307h-308v-307z" />
<glyph unicode="/" horiz-adv-x="661" d="M31 0h307l307 1536h-307z" />
<glyph unicode="0" horiz-adv-x="1331" d="M102 154l154 -154h819l154 154v1228l-154 154h-819l-154 -154v-1228zM410 307v922h512v-922h-512zM508 618h309v308h-309v-308z" />
<glyph unicode="1" horiz-adv-x="819" d="M102 1229h308v-1229h307v1382l-154 154h-461v-307z" />
<glyph unicode="2" horiz-adv-x="1331" d="M102 0h1119v307h-811v307h657l154 154v614l-154 154h-965v-307h811v-307h-657l-154 -154v-768z" />
<glyph unicode="3" d="M102 614h824v-307h-820v-307h973l154 154v460l-154 154l154 154v460l-154 154h-973v-307h820v-307h-824v-308z" />
<glyph unicode="4" d="M102 768l154 -154h670v-614h307v1536h-307v-614h-516v614h-308v-768z" />
<glyph unicode="5" d="M102 0h971l154 154v614l-154 154h-663v307h817v307h-1125v-768l154 -154h664v-307h-818v-307z" />
<glyph unicode="6" d="M102 154l154 -154h819l154 154v614l-154 154h-665v307h819v307h-973l-154 -154v-1228zM410 307v307h512v-307h-512z" />
<glyph unicode="7" d="M102 1229l818 2v-1229h307v1382l-154 154l-971 -2v-307z" />
<glyph unicode="8" d="M102 154l154 -154h825l154 154v460l-154 154l154 154v460l-154 154h-825l-154 -154v-460l154 -154l-154 -154v-460zM410 307v307h518v-307h-518zM410 922v307h518v-307h-518z" />
<glyph unicode="9" horiz-adv-x="1331" d="M102 0h971l154 154v1228l-154 154h-817l-154 -154v-614l154 -154h664v-307h-818v-307zM410 922v307h510v-307h-510z" />
<glyph unicode=":" horiz-adv-x="512" d="M102 0h308v307h-308v-307zM102 922h308v307h-308v-307z" />
<glyph unicode=";" horiz-adv-x="512" d="M102 0h154v-154l154 154v307h-308v-307zM102 922h308v307h-308v-307z" />
<glyph unicode="&#x3c;" horiz-adv-x="884" d="M63 698v217l711 521v-410l-385 -219l385 -289v-416z" />
<glyph unicode="=" horiz-adv-x="1740" d="M102 305h1536v307h-1536v-307zM102 915h1536v308h-1536v-308z" />
<glyph unicode="&#x3e;" horiz-adv-x="884" d="M102 102l711 596v217l-711 521v-410l385 -219l-385 -289v-416z" />
<glyph unicode="?" horiz-adv-x="1126" d="M102 0h308v307h-308v-307zM102 461h308v153h460l154 154v614l-154 154h-768v-307h615v-307h-461l-154 -154v-307z" />
<glyph unicode="@" horiz-adv-x="1636" d="M102 0l308 -211v1542h821v-301h-463l-154 -153v-721l154 -154h770v1483l-154 153h-1128l-154 -153v-1485zM922 311v412h309v-412h-309z" />
<glyph unicode="A" horiz-adv-x="1728" d="M102 0h308v614h909v-614h307v1382l-153 154h-1217l-154 -154v-1382zM410 922v307h909v-307h-909z" />
<glyph unicode="B" horiz-adv-x="1728" d="M102 0h1371l153 154v460l-153 154l153 154v460l-153 154h-1371v-1536zM410 307v307h909v-307h-909zM410 922v307h909v-307h-909z" />
<glyph unicode="C" horiz-adv-x="1728" d="M102 154l154 -154h1370v307h-1216v922h1216v309l-1370 -2l-154 -154v-1228z" />
<glyph unicode="D" horiz-adv-x="1728" d="M102 0h1371l153 154v1228l-153 154h-1371v-1536zM410 307v922h909v-922h-909z" />
<glyph unicode="E" horiz-adv-x="1730" d="M102 154l154 -154h1370v307h-1216v307h1218v308h-1218v307h1216v307h-1370l-154 -154v-1228z" />
<glyph unicode="F" horiz-adv-x="1730" d="M102 0h308v614h1218v308h-1218v307h1216v307h-1370l-154 -154v-1382z" />
<glyph unicode="G" horiz-adv-x="1587" d="M102 154l154 -154h1229v922h-766v-308h459v-307h-768v922h1075v307h-1229l-154 -154v-1228z" />
<glyph unicode="H" horiz-adv-x="1736" d="M102 0h308v614h917v-614h307v1536h-307v-614h-917v614h-308v-1536z" />
<glyph unicode="I" horiz-adv-x="512" d="M102 0h308v1536h-308v-1536z" />
<glyph unicode="J" horiz-adv-x="1284" d="M102 0h926l154 154v1382h-308v-1229h-772v-307z" />
<glyph unicode="K" horiz-adv-x="1736" d="M102 0h308v614h917v-614h307v614l-153 154l153 154v614h-307v-614h-917v614h-308v-1536z" />
<glyph unicode="L" horiz-adv-x="1132" d="M102 154l154 -154h774v307h-620v1229h-308v-1382z" />
<glyph unicode="M" horiz-adv-x="1736" d="M102 0h308v1229h303v-1229h307v1229h307v-1229h307v1382l-153 154h-1379v-1536z" />
<glyph unicode="N" horiz-adv-x="1736" d="M102 0h308v1229h917v-1233h307v1386l-153 154h-1379v-1536z" />
<glyph unicode="O" horiz-adv-x="1730" d="M102 154l154 -154h1219l153 154v1228l-153 154h-1219l-154 -154v-1228zM410 307v922h911v-922h-911z" />
<glyph unicode="P" horiz-adv-x="1730" d="M102 0h308v614h1065l153 154v614l-153 154h-1373v-1536zM410 922v307h911v-307h-911z" />
<glyph unicode="Q" horiz-adv-x="1728" d="M102 154l154 -154h457v-301h307v301h453l153 154v1228l-153 154h-1217l-154 -154v-1228zM410 307v922h909v-922h-909z" />
<glyph unicode="R" horiz-adv-x="1730" d="M102 0h308v614h911v-614h307v614l-153 154l153 154v460l-153 154h-1373v-1536zM410 922v307h911v-307h-911z" />
<glyph unicode="S" horiz-adv-x="1722" d="M102 0h1364l154 154v614l-154 154h-1056v307h1210v307h-1364l-154 -154v-614l154 -154h1057v-307h-1211v-307z" />
<glyph unicode="T" horiz-adv-x="1736" d="M102 1229l621 2v-1229h307v1229h604v307l-1532 -2v-307z" />
<glyph unicode="U" horiz-adv-x="1734" d="M102 154l154 -154h1223l153 154v1382h-307v-1229h-915v1229h-308v-1382z" />
<glyph unicode="V" horiz-adv-x="1427" d="M102 0h1069l154 154v1382h-307v-1229h-608v1229h-308v-1536z" />
<glyph unicode="W" horiz-adv-x="1738" d="M102 154l154 -154h1380v1536h-307v-1229h-305v1229h-307v-1229h-307v1229h-308v-1382z" />
<glyph unicode="X" horiz-adv-x="1728" d="M102 0h308v614h909v-614h307v614l-153 154l153 154v614h-307v-614h-909v614h-308v-614l154 -154l-154 -154v-614z" />
<glyph unicode="Y" horiz-adv-x="1724" d="M102 768l154 -154h461v-614h307v614h444l154 154v768h-307v-614h-905v614h-308v-768z" />
<glyph unicode="Z" horiz-adv-x="1730" d="M102 0h1526v307h-1218v307h1065l153 154v768h-1526v-307h1219v-307h-1065l-154 -154v-768z" />
<glyph unicode="[" horiz-adv-x="665" d="M102 -154h461v308h-153v1228h153v308h-461v-1844z" />
<glyph unicode="\" horiz-adv-x="665" d="M23 1536l307 -1536h307l-307 1536h-307z" />
<glyph unicode="]" horiz-adv-x="665" d="M102 154v-308h461v1844h-461v-308h154v-1228h-154z" />
<glyph unicode="^" horiz-adv-x="921" d="M29 1114l217 -217l217 217l217 -217l217 217l-326 326h-217z" />
<glyph unicode="_" horiz-adv-x="1228" d="M0 0v-307h1229v307h-1229z" />
<glyph unicode="`" horiz-adv-x="1331" d="M473 1874l229 -232l154 154l-229 232z" />
<glyph unicode="a" d="M102 0h308v614h510v-614h307v1382l-156 154h-815l-154 -154v-1382zM410 922v307h510v-307h-510z" />
<glyph unicode="b" d="M102 0h973l154 154v460l-154 154l154 154v460l-154 154h-973v-1536zM410 307v307h512v-307h-512zM410 922v307h512v-307h-512z" />
<glyph unicode="c" d="M102 154l154 -154h971v307h-817v922h817v307h-971l-154 -154v-1228z" />
<glyph unicode="d" horiz-adv-x="1337" d="M102 0h979l154 154v1228l-154 154h-979v-1536zM410 307v922h518v-922h-518z" />
<glyph unicode="e" horiz-adv-x="1331" d="M102 154l154 -154h967v307h-813v307h815v308h-815v307h813v307h-967l-154 -154v-1228z" />
<glyph unicode="f" horiz-adv-x="1331" d="M102 0h308v614h811v308h-811v307h809v309l-963 -2l-154 -154v-1382z" />
<glyph unicode="g" horiz-adv-x="1331" d="M102 154l154 -154h967v922h-557v-308h249v-307h-505v922h813v307h-967l-154 -154v-1228z" />
<glyph unicode="h" horiz-adv-x="1337" d="M102 0h308v614h503v-614h308v1536h-308v-614h-503v614h-308v-1536z" />
<glyph unicode="i" horiz-adv-x="512" d="M102 0h308v1536h-308v-1536z" />
<glyph unicode="j" horiz-adv-x="921" d="M102 0h555l154 154v1382h-307v-1229h-402v-307z" />
<glyph unicode="k" d="M102 0h308v614h510v-616h307v616l-154 154l154 154v612h-307v-612h-510v614h-308v-1536z" />
<glyph unicode="l" horiz-adv-x="919" d="M102 154l154 -154h553v307h-399v1229h-308v-1382z" />
<glyph unicode="m" horiz-adv-x="1538" d="M102 0h308v1229h206v-1229h308v1229h204v-1229h308v1382l-154 154h-1180v-1536z" />
<glyph unicode="n" d="M102 0h308v1229h512v-1229l307 -2v1384l-154 154h-973v-1536z" />
<glyph unicode="o" d="M102 154l154 -154h821l154 154v1228l-154 154h-821l-154 -154v-1228zM410 307v922h514v-922h-514z" />
<glyph unicode="p" horiz-adv-x="1331" d="M102 0h308v614h663l154 154v614l-154 154h-971v-1536zM410 922v307h510v-307h-510z" />
<glyph unicode="q" horiz-adv-x="1335" d="M102 154l154 -154h266v-301h307v301h248l154 154v1228l-154 154h-821l-154 -154v-1228zM410 307v922h514v-922h-514z" />
<glyph unicode="r" horiz-adv-x="1331" d="M102 0h308v614h512v-614h307v614l-154 154l154 154v460l-154 154h-973v-1536zM410 922v307h512v-307h-512z" />
<glyph unicode="s" horiz-adv-x="1331" d="M102 0h967l154 154v614l-154 154h-659v307h813v307h-967l-154 -154v-614l154 -154h659v-307h-813v-307z" />
<glyph unicode="t" d="M102 1229h416v-1229h307v1229h400v309l-1123 -2v-307z" />
<glyph unicode="u" horiz-adv-x="1331" d="M102 154l154 -154h823l154 154v1382h-307v-1229h-516v1229h-308v-1382z" />
<glyph unicode="v" horiz-adv-x="1226" d="M102 0h859l153 154v1382h-307v-1229h-397v1229h-308v-1536z" />
<glyph unicode="w" horiz-adv-x="1544" d="M102 154l154 -154h1182v1536h-308v-1229h-204v1229h-308v-1229h-208v1229h-308v-1382z" />
<glyph unicode="x" d="M102 0h308v614h516v-614h307v614l-154 154l154 154v614h-307v-614h-516v614h-308v-614l154 -154l-154 -154v-614z" />
<glyph unicode="y" d="M102 768l154 -154h254v-614h307v614h264l154 154v768h-307v-614h-518v614h-308v-768z" />
<glyph unicode="z" d="M102 0h1127v307h-819v307h665l154 154v768h-1127v-307h820v-307h-666l-154 -154v-768z" />
<glyph unicode="{" horiz-adv-x="819" d="M102 768l154 -154v-614l154 -154h307v308h-154v460l-153 154l153 154v460h154v308h-307l-154 -154v-614z" />
<glyph unicode="|" horiz-adv-x="512" d="M102 -209h308v1950h-308v-1950z" />
<glyph unicode="}" horiz-adv-x="819" d="M102 154v-308h308l153 154v614l154 154l-154 154v614l-153 154h-308v-308h154v-460l154 -154l-154 -154v-460h-154z" />
<glyph unicode="~" horiz-adv-x="1236" d="M29 1221l325 -326h217l215 215l218 -215l217 217l-326 326h-217l-217 -217l-215 217z" />
<glyph unicode="&#xa1;" horiz-adv-x="512" d="M102 -307h308v1075h-308v-1075zM102 922h308v307h-308v-307z" />
<glyph unicode="&#xa2;" horiz-adv-x="1015" d="M102 309l142 -153h166v-154h307v154h211v307h-518v616h516v307h-209v154h-307v-154h-154l-154 -153v-924z" />
<glyph unicode="&#xa3;" horiz-adv-x="1191" d="M63 401h205v-96h-202v-307h1067v307h-558v96h308v308h-308v116h308v308h-308v96h459v307h-612l-154 -154v-249h-205v-308h205v-116h-205v-308z" />
<glyph unicode="&#xa5;" d="M102 872l154 -153h254v-207h-406v-307h406v-205h307v205h408v307h-408v207h264l154 153v664h-307v-510h-518v510h-308v-664z" />
<glyph unicode="&#xa6;" horiz-adv-x="512" d="M102 -209h308v823h-308v-823zM102 1024h308v717h-308v-717z" />
<glyph unicode="&#xa7;" horiz-adv-x="1331" d="M102 0v-307h967l154 153v1028l-154 154h-659v203h813v307h-967l-154 -154v-1028l154 -153h659v-203h-813zM410 510v203h505v-203h-505z" />
<glyph unicode="&#xa8;" horiz-adv-x="1732" d="M414 1638h307v308h-307v-308zM1012 1638h307v308h-307v-308z" />
<glyph unicode="&#xa9;" horiz-adv-x="1730" d="M102 154l154 -154h1219l153 154v1228l-153 154h-1219l-154 -154v-1228zM410 307v922h911v-922h-911zM522 537l154 -154h536v307h-383v152h383v307h-536l-154 -154v-458z" />
<glyph unicode="&#xaa;" horiz-adv-x="1742" d="M102 154l154 -154h1231l153 154v1228l-153 154h-1231l-154 -154v-1228zM410 307v922h923v-922h-923zM717 614l309 2v308l-309 -2v-308z" />
<glyph unicode="&#xab;" horiz-adv-x="1253" d="M74 666v217l325 325l217 -217l-217 -217l217 -217l-217 -217zM645 668v217l326 325l217 -217l-217 -217l217 -217l-217 -217z" />
<glyph unicode="&#xac;" horiz-adv-x="2093" d="M63 1323h99v115h227v-625h-278v-813h1642q113 0 191 51q90 58 90 164q0 158 -164 209q113 55 112 176q0 72 -38 119h4v280h-93v-186h-589v377h-461v248h106v96h-831zM207 94v625h278v719h215v-346h465v-277h-106v-96h6l149 -373h-385l-41 -92h461l64 -160h-1106zM700 461 h123v354h-123v-354zM1161 719h531q188 0 188 -123q0 -59 -59 -96q-47 -31 -111 -31h-225v-98h203q241 -1 241 -142q0 -137 -241 -137h-267zM1350 1092h305v-103h96v299h-96v-102h-205v250h387l14 -183h93v279h-594v-440z" />
<glyph unicode="&#xad;" horiz-adv-x="724" d="M53 614h623v308h-623v-308z" />
<glyph unicode="&#xae;" horiz-adv-x="1730" d="M102 154l154 -154h1219l153 154v1228l-153 154h-1219l-154 -154v-1228zM410 307v922h911v-922h-911zM522 383h307v459h383v307h-536l-154 -154v-612z" />
<glyph unicode="&#xaf;" horiz-adv-x="1331" d="M354 1638h623v308h-623v-308z" />
<glyph unicode="&#xb0;" horiz-adv-x="868" d="M106 1044l185 -118h280l189 118v375l-185 117h-280l-189 -117v-375zM326 1165v133l51 35h110l54 -35v-133l-54 -32h-110z" />
<glyph unicode="&#xb1;" horiz-adv-x="1742" d="M102 0h1536v307h-1536v-307zM104 821h623v-418h307v418h606v307h-606v408h-307v-408h-623v-307z" />
<glyph unicode="&#xb2;" horiz-adv-x="1730" d="M102 0h1526v307h-1218v307h1065l153 154v614l-153 154h-1373v-307h1219v-307h-1065l-154 -154v-768z" />
<glyph unicode="&#xb3;" horiz-adv-x="1740" d="M102 614h1229v-307h-1225v-307h1379l153 154v460l-153 154l153 154v460l-153 154h-1379v-307h1225v-307h-1229v-308z" />
<glyph unicode="&#xb4;" horiz-adv-x="1331" d="M473 1796l154 -154l229 232l-154 154z" />
<glyph unicode="&#xb5;" horiz-adv-x="1740" d="M102 768l154 -154h1075v-614h307v1536h-307v-614h-921v614h-308v-768z" />
<glyph unicode="&#xb6;" horiz-adv-x="1331" d="M100 563l154 -153h158v-715h307v1323h199v-1321h307v1634h-971l-154 -153v-615z" />
<glyph unicode="&#xb7;" horiz-adv-x="1734" d="M102 0h1377l153 154v614l-153 154h-1069v307h1222v307h-1530v-768l154 -154h1069v-307h-1223v-307z" />
<glyph unicode="&#xb8;" horiz-adv-x="1331" d="M512 100v-409h307v409h-307z" />
<glyph unicode="&#xb9;" horiz-adv-x="1728" d="M102 154l154 -154h1217l153 154v614l-153 154h-1063v307h1216v307h-1370l-154 -154v-1228zM410 307v307h909v-307h-909z" />
<glyph unicode="&#xba;" horiz-adv-x="1124" d="M102 657l154 -153h618l154 153v621l-154 154h-618l-154 -154v-621zM106 96h914v307h-914v-307zM410 811v313h311v-313h-311z" />
<glyph unicode="&#xbb;" horiz-adv-x="1253" d="M74 559l217 -217l325 326v217l-325 325l-217 -217l217 -217zM645 557l217 -217l326 326v217l-326 325l-217 -217l217 -217z" />
<glyph unicode="&#xbc;" horiz-adv-x="1718" d="M102 1229l1207 2v-1229h307v1382l-154 154l-1360 -2v-307z" />
<glyph unicode="&#xbd;" horiz-adv-x="1728" d="M102 154l154 -154h1217l153 154v460l-153 154l153 154v460l-153 154h-1217l-154 -154v-460l154 -154l-154 -154v-460zM410 307v307h909v-307h-909zM410 922v307h909v-307h-909z" />
<glyph unicode="&#xbe;" horiz-adv-x="1728" d="M102 0h1371l153 154v1228l-153 154h-1217l-154 -154v-614l154 -154h1063v-307h-1217v-307zM410 922v307h909v-307h-909z" />
<glyph unicode="&#xbf;" horiz-adv-x="1126" d="M102 -154l154 -153h768v307h-614v307h460l154 154v307h-307v-154h-461l-154 -153v-615zM717 922h307v307h-307v-307z" />
<glyph unicode="&#xc0;" horiz-adv-x="1728" d="M102 0h308v614h909v-614h307v1382l-153 154h-1217l-154 -154v-1382zM410 922v307h909v-307h-909zM674 1874l229 -232l154 154l-230 232z" />
<glyph unicode="&#xc1;" horiz-adv-x="1728" d="M102 0h308v614h909v-614h307v1382l-153 154h-1217l-154 -154v-1382zM410 922v307h909v-307h-909zM672 1796l153 -154l230 232l-154 154z" />
<glyph unicode="&#xc2;" horiz-adv-x="1728" d="M102 0h308v614h909v-614h307v1382l-153 154h-1217l-154 -154v-1382zM410 922v307h909v-307h-909zM559 1796l154 -154l153 154l154 -154l154 154l-230 232h-153z" />
<glyph unicode="&#xc3;" horiz-adv-x="1728" d="M102 0h308v614h909v-614h307v1382l-153 154h-1217l-154 -154v-1382zM410 922v307h909v-307h-909zM444 1874l232 -232h153l152 154l154 -154l153 154l-229 232h-154l-153 -156l-158 156z" />
<glyph unicode="&#xc4;" horiz-adv-x="1728" d="M102 0h308v614h909v-614h307v1382l-153 154h-1217l-154 -154v-1382zM410 922v307h909v-307h-909zM414 1638h307v308h-307v-308zM1012 1638h307v308h-307v-308z" />
<glyph unicode="&#xc5;" horiz-adv-x="1728" d="M102 0h308v614h909v-614h307v1382l-153 154h-1217l-154 -154v-1382zM410 922v307h909v-307h-909zM547 1759l184 -119h281l188 119v375l-184 117h-281l-188 -117v-375zM727 1843v189l74 49h158l73 -49v-189l-75 -47h-156z" />
<glyph unicode="&#xc6;" horiz-adv-x="2945" d="M102 0h308v614h909v-614h1524v307h-1217v307h1219v308h-1219v307h1217v307h-2587l-154 -154v-1382zM410 922v307h909v-307h-909z" />
<glyph unicode="&#xc7;" horiz-adv-x="1728" d="M102 154l154 -154h508v-301h307v301h555v307h-1216v922h1216v309l-1370 -2l-154 -154v-1228z" />
<glyph unicode="&#xc8;" horiz-adv-x="1730" d="M102 154l154 -154h1370v307h-1216v307h1218v308h-1218v307h1216v307h-1370l-154 -154v-1228zM733 1874l230 -232l153 154l-229 232z" />
<glyph unicode="&#xc9;" horiz-adv-x="1730" d="M102 154l154 -154h1370v307h-1216v307h1218v308h-1218v307h1216v307h-1370l-154 -154v-1228zM778 1796l154 -154l229 232l-153 154z" />
<glyph unicode="&#xca;" horiz-adv-x="1730" d="M102 154l154 -154h1370v307h-1216v307h1218v308h-1218v307h1216v307h-1370l-154 -154v-1228zM559 1796l154 -154l153 154l154 -154l154 154l-230 232h-153z" />
<glyph unicode="&#xcb;" horiz-adv-x="1730" d="M102 154l154 -154h1370v307h-1216v307h1218v308h-1218v307h1216v307h-1370l-154 -154v-1228zM459 1638h307v308h-307v-308zM1057 1638h307v308h-307v-308z" />
<glyph unicode="&#xcc;" horiz-adv-x="512" d="M63 1874l230 -232l153 154l-229 232zM102 0h308v1536h-308v-1536z" />
<glyph unicode="&#xcd;" horiz-adv-x="512" d="M61 1796l230 232l153 -154l-229 -232zM98 0v1536h308v-1536h-308z" />
<glyph unicode="&#xce;" horiz-adv-x="512" d="M-49 1796l153 -154l154 154l154 -154l153 154l-229 232h-154zM102 0h308v1536h-308v-1536z" />
<glyph unicode="&#xcf;" horiz-adv-x="512" d="M-104 1638h307v308h-307v-308zM102 0h308v1536h-308v-1536zM311 1638h307v308h-307v-308z" />
<glyph unicode="&#xd0;" horiz-adv-x="1871" d="M39 616h207v-616h1370l153 154v1228l-153 154h-1370v-612h-207v-308zM553 307v309h516l2 308h-518v305h909v-922h-909z" />
<glyph unicode="&#xd1;" horiz-adv-x="1736" d="M102 0h308v1229h917v-1233h307v1386l-153 154h-1379v-1536zM444 1874l232 -232h153l152 154l154 -154l153 154l-229 232h-154l-153 -156l-158 156z" />
<glyph unicode="&#xd2;" horiz-adv-x="1730" d="M102 154l154 -154h1219l153 154v1228l-153 154h-1219l-154 -154v-1228zM410 307v922h911v-922h-911zM674 1874l229 -232l154 154l-230 232z" />
<glyph unicode="&#xd3;" horiz-adv-x="1730" d="M102 154l154 -154h1219l153 154v1228l-153 154h-1219l-154 -154v-1228zM410 307v922h911v-922h-911zM672 1796l153 -154l230 232l-154 154z" />
<glyph unicode="&#xd4;" horiz-adv-x="1730" d="M102 154l154 -154l1219 -2l153 154v1228l-153 154l-1219 2l-154 -154v-1228zM410 307v922l911 -2v-922zM559 1796l154 -154l153 154l154 -154l154 154l-230 232h-153z" />
<glyph unicode="&#xd5;" horiz-adv-x="1730" d="M102 154l154 -154h1219l153 154v1228l-153 154h-1219l-154 -154v-1228zM410 307v922h911v-922h-911zM444 1874l232 -232h153l152 154l154 -154l153 154l-229 232h-154l-153 -156l-158 156z" />
<glyph unicode="&#xd6;" horiz-adv-x="1730" d="M102 154l154 -154l1219 -2l153 154v1228l-153 154l-1219 2l-154 -154v-1228zM410 307v922l911 -2v-922zM414 1638h307v308h-307v-308zM1012 1638h307v308h-307v-308z" />
<glyph unicode="&#xd7;" horiz-adv-x="1421" d="M59 1202l441 -440l-434 -434l217 -217l434 434l428 -428l217 217l-428 428l434 434l-217 217l-434 -434l-441 440z" />
<glyph unicode="&#xd8;" horiz-adv-x="1730" d="M102 154l154 -154h1219l153 154v1228l-153 154h-1219l-154 -154v-1228zM410 307v922h403l-184 -922h-219zM936 307l184 922h201v-922h-385z" />
<glyph unicode="&#xd9;" horiz-adv-x="1734" d="M102 154l154 -154h1223l153 154v1382h-307v-1229h-915v1229h-308v-1382zM674 1874l229 -232l154 154l-230 232z" />
<glyph unicode="&#xda;" horiz-adv-x="1734" d="M102 154l154 -154h1223l153 154v1382h-307v-1229h-915v1229h-308v-1382zM672 1796l153 -154l230 232l-154 154z" />
<glyph unicode="&#xdb;" horiz-adv-x="1734" d="M102 154l154 -154h1223l153 154v1382h-307v-1229h-915v1229h-308v-1382zM559 1796l154 -154l153 154l154 -154l154 154l-230 232h-153z" />
<glyph unicode="&#xdc;" horiz-adv-x="1734" d="M102 154l154 -154h1223l153 154v1382h-307v-1229h-915v1229h-308v-1382zM414 1638h307v308h-307v-308zM1012 1638h307v308h-307v-308z" />
<glyph unicode="&#xdd;" horiz-adv-x="1724" d="M102 768l154 -154h461v-614h307v614h444l154 154v768h-307v-614h-905v614h-308v-768zM676 1788l153 -154l230 232l-154 153z" />
<glyph unicode="&#xde;" horiz-adv-x="1730" d="M102 0h308v307h1060l154 154v614l-154 154h-1060v307h-308v-1536zM410 614v308h907v-308h-907z" />
<glyph unicode="&#xdf;" horiz-adv-x="2662" d="M102 0h967l154 154v614l-154 154h-659v307h813v307h-967l-154 -154v-614l154 -154h659v-307h-813v-307zM1438 0h966l154 154v614l-154 154h-659v307h813v307h-967l-153 -154v-614l153 -154h660v-307h-813v-307z" />
<glyph unicode="&#xe0;" d="M102 0h308v614h510v-614h307v1382l-154 154h-817l-154 -154v-1382zM410 922v307h510v-307h-510zM473 1874l229 -232l154 154l-229 232z" />
<glyph unicode="&#xe1;" d="M102 0h308v614h510v-614h307v1382l-154 154h-817l-154 -154v-1382zM410 922v307h510v-307h-510zM473 1796l154 -154l229 232l-154 154z" />
<glyph unicode="&#xe2;" d="M102 0h308v614h510v-614h307v1382l-154 154h-817l-154 -154v-1382zM358 1796l154 -154l154 154l153 -154l154 154l-230 232h-153zM410 922v307h510v-307h-510z" />
<glyph unicode="&#xe3;" d="M102 0h308v614h510v-614h307v1382l-154 154h-817l-154 -154v-1382zM244 1874l231 -232h154l151 154l154 -154l153 154l-229 232h-153l-154 -156l-158 156zM410 922v307h510v-307h-510z" />
<glyph unicode="&#xe4;" d="M102 0h308v614h510v-614h307v1382l-154 154h-817l-154 -154v-1382zM213 1638h307v308h-307v-308zM410 922v307h510v-307h-510zM811 1638h307v308h-307v-308z" />
<glyph unicode="&#xe5;" d="M102 0h308v614h510v-614h307v1382l-156 154h-815l-154 -154v-1382zM338 1759l184 -119h281l188 119v375l-184 117h-281l-188 -117v-375zM410 922v307h510v-307h-510zM518 1843v189l74 49h158l73 -49v-189l-75 -47h-156z" />
<glyph unicode="&#xe6;" horiz-adv-x="2150" d="M102 0h308v614h510v-614l1124 2v307h-813v307h815v308h-815v307h813v307l-1788 -2l-154 -154v-1382zM410 922v307h510v-307h-510z" />
<glyph unicode="&#xe7;" d="M102 154l154 -154h317v-309h308v309h346v307h-817v922h817v307h-971l-154 -154v-1228z" />
<glyph unicode="&#xe8;" horiz-adv-x="1331" d="M102 154l154 -154h967v307h-813v307h815v308h-815v307h813v307h-967l-154 -154v-1228zM549 1874l229 -232l154 154l-230 232z" />
<glyph unicode="&#xe9;" horiz-adv-x="1331" d="M102 154l154 -154h967v307h-813v307h815v308h-815v307h813v307h-967l-154 -154v-1228zM565 1796l154 -154l229 232l-153 154z" />
<glyph unicode="&#xea;" horiz-adv-x="1331" d="M102 154l154 -154h967v307h-813v307h815v308h-815v307h813v307h-967l-154 -154v-1228zM358 1796l154 -154l154 154l153 -154l154 154l-230 232h-153z" />
<glyph unicode="&#xeb;" horiz-adv-x="1331" d="M102 154l154 -154h967v307h-813v307h815v308h-815v307h813v307h-967l-154 -154v-1228zM213 1638h307v308h-307v-308zM811 1638h307v308h-307v-308z" />
<glyph unicode="&#xec;" horiz-adv-x="512" d="M63 1874l230 -232l153 154l-229 232zM102 0h308v1536h-308v-1536z" />
<glyph unicode="&#xed;" horiz-adv-x="512" d="M61 1796l230 232l153 -154l-229 -232zM98 0v1536h308v-1536h-308z" />
<glyph unicode="&#xee;" horiz-adv-x="512" d="M-49 1796l153 -154l154 154l154 -154l153 154l-229 232h-154zM102 0h308v1536h-308v-1536z" />
<glyph unicode="&#xef;" horiz-adv-x="512" d="M-104 1638h307v308h-307v-308zM102 0h308v1536h-308v-1536zM311 1638h307v308h-307v-308z" />
<glyph unicode="&#xf0;" d="M39 616h207v-616h829l154 154v1228l-154 154h-829v-612h-207v-308zM553 307v309h215l2 308h-217v305h369v-922h-369z" />
<glyph unicode="&#xf1;" d="M102 0h308v1229h512v-1229l307 -2v1384l-154 154h-973v-1536zM244 1874l231 -232h154l151 154l154 -154l153 154l-229 232h-153l-154 -156l-158 156z" />
<glyph unicode="&#xf2;" d="M102 154l154 -154h821l154 154v1228l-154 154h-821l-154 -154v-1228zM410 307v922h514v-922h-514zM473 1874l229 -232l154 154l-229 232z" />
<glyph unicode="&#xf3;" d="M102 154l154 -154h821l154 154v1228l-154 154h-821l-154 -154v-1228zM410 307v922h514v-922h-514zM473 1796l154 -154l229 232l-154 154z" />
<glyph unicode="&#xf4;" d="M102 154l154 -154h821l154 154v1228l-154 154h-821l-154 -154v-1228zM358 1796l154 -154l154 154l153 -154l154 154l-230 232h-153zM410 307v922h514v-922h-514z" />
<glyph unicode="&#xf5;" d="M102 154l154 -154h821l154 154v1228l-154 154h-821l-154 -154v-1228zM244 1874l231 -232h154l151 154l154 -154l153 154l-229 232h-153l-154 -156l-158 156zM410 307v922h514v-922h-514z" />
<glyph unicode="&#xf6;" d="M102 154l154 -154h821l154 154v1228l-154 154h-821l-154 -154v-1228zM213 1638h307v308h-307v-308zM410 307v922h514v-922h-514zM811 1638h307v308h-307v-308z" />
<glyph unicode="&#xf7;" horiz-adv-x="1640" d="M53 614h1536v308h-1536v-308zM664 102h307v308h-307v-308zM664 1128h307v308h-307v-308z" />
<glyph unicode="&#xf8;" d="M102 154l154 -154h821l154 154v1228l-154 154h-821l-154 -154v-1228zM410 307v922h194l-184 -922h-10zM727 307l184 922h13v-922h-197z" />
<glyph unicode="&#xf9;" horiz-adv-x="1331" d="M102 154l154 -154h823l154 154v1382h-307v-1229h-516v1229h-308v-1382zM473 1874l229 -232l154 154l-229 232z" />
<glyph unicode="&#xfa;" horiz-adv-x="1331" d="M102 154l154 -154h823l154 154v1382h-307v-1229h-516v1229h-308v-1382zM473 1796l154 -154l229 232l-154 154z" />
<glyph unicode="&#xfb;" horiz-adv-x="1331" d="M102 154l154 -154h823l154 154v1382h-307v-1229h-516v1229h-308v-1382zM358 1796l154 -154l154 154l153 -154l154 154l-230 232h-153z" />
<glyph unicode="&#xfc;" horiz-adv-x="1331" d="M102 154l154 -154h823l154 154v1382h-307v-1229h-516v1229h-308v-1382zM213 1638h307v308h-307v-308zM811 1638h307v308h-307v-308z" />
<glyph unicode="&#xfd;" d="M102 768l154 -154h254v-614h307v614h264l154 154v768h-307v-614h-518v614h-308v-768zM473 1796l154 -154l229 232l-154 154z" />
<glyph unicode="&#xfe;" d="M102 0h308v307h671l154 154v614l-154 154h-671v307h-308v-1536zM410 614v308h518v-308h-518z" />
<glyph unicode="&#xff;" d="M102 768l154 -154h254v-614h307v614h264l154 154v768h-307v-614h-518v614h-308v-768zM213 1638h307v308h-307v-308zM811 1638h307v308h-307v-308z" />
<glyph unicode="&#x152;" horiz-adv-x="2945" d="M102 154l154 -154l2587 -2v307h-1215v307h1217v308h-1217v307h1215v307l-2587 2l-154 -154v-1228zM410 307v922l909 -4v-922z" />
<glyph unicode="&#x153;" horiz-adv-x="2148" d="M102 154l154 -154h1790v307h-813v307h815v308h-815v307h813v307h-1790l-154 -154v-1228zM410 307v922h514v-922h-514z" />
<glyph unicode="&#x178;" horiz-adv-x="1724" d="M102 768l154 -154h461v-614h307v614h444l154 154v768h-307v-614h-905v614h-308v-768zM414 1638h307v308h-307v-308zM1012 1638h307v308h-307v-308z" />
<glyph unicode="&#x2c6;" horiz-adv-x="1732" d="M559 1796l154 -154l153 154l154 -154l154 154l-230 232h-153z" />
<glyph unicode="&#x2dc;" horiz-adv-x="1331" d="M244 1874l231 -232h154l151 154l154 -154l153 154l-229 232h-153l-154 -156l-158 156z" />
<glyph unicode="&#x2000;" horiz-adv-x="1125" />
<glyph unicode="&#x2001;" horiz-adv-x="2251" />
<glyph unicode="&#x2002;" horiz-adv-x="1125" />
<glyph unicode="&#x2003;" horiz-adv-x="2251" />
<glyph unicode="&#x2004;" horiz-adv-x="750" />
<glyph unicode="&#x2005;" horiz-adv-x="562" />
<glyph unicode="&#x2006;" horiz-adv-x="375" />
<glyph unicode="&#x2007;" horiz-adv-x="375" />
<glyph unicode="&#x2008;" horiz-adv-x="281" />
<glyph unicode="&#x2009;" horiz-adv-x="450" />
<glyph unicode="&#x200a;" horiz-adv-x="125" />
<glyph unicode="&#x2010;" horiz-adv-x="724" d="M53 614h623v308h-623v-308z" />
<glyph unicode="&#x2011;" horiz-adv-x="724" d="M53 614h623v308h-623v-308z" />
<glyph unicode="&#x2012;" horiz-adv-x="724" d="M53 614h623v308h-623v-308z" />
<glyph unicode="&#x2013;" horiz-adv-x="1433" d="M102 614h1229l2 308h-1231v-308z" />
<glyph unicode="&#x2014;" horiz-adv-x="1538" d="M102 614h1336l2 308h-1338v-308z" />
<glyph unicode="&#x2018;" horiz-adv-x="512" d="M102 1126h308v410h-308v-410z" />
<glyph unicode="&#x2019;" horiz-adv-x="512" d="M102 1126h308v410h-308v-410z" />
<glyph unicode="&#x201a;" horiz-adv-x="512" d="M102 203v-410h308v410h-308z" />
<glyph unicode="&#x201c;" horiz-adv-x="919" d="M102 1126h308v410h-308v-410zM512 1126h307v410h-307v-410z" />
<glyph unicode="&#x201d;" horiz-adv-x="919" d="M102 1126h308v410h-308v-410zM512 1126h307v410h-307v-410z" />
<glyph unicode="&#x201e;" horiz-adv-x="919" d="M102 203v-410h308v410h-308zM512 203v-410h307v410h-307z" />
<glyph unicode="&#x2022;" horiz-adv-x="921" d="M102 618l150 -100h410l151 100v410l-149 100h-410l-152 -100v-410z" />
<glyph unicode="&#x2026;" horiz-adv-x="1538" d="M102 0h308v307h-308v-307zM623 0h307v307h-307v-307zM1133 -2h307v307h-307v-307z" />
<glyph unicode="&#x202f;" horiz-adv-x="450" />
<glyph unicode="&#x2039;" horiz-adv-x="692" d="M74 666v217l325 325l217 -217l-217 -217l217 -217l-217 -217z" />
<glyph unicode="&#x203a;" horiz-adv-x="692" d="M76 557l217 -217l325 326v217l-325 325l-217 -217l217 -217z" />
<glyph unicode="&#x205f;" horiz-adv-x="562" />
<glyph unicode="&#x20ac;" horiz-adv-x="1128" d="M76 401h129v-235l145 -168h719v307h-557v96h383v308h-383v116h383v308h-383v96h555v307h-709l-153 -154v-249h-129v-308h129v-116h-129v-308z" />
<glyph unicode="&#x2122;" horiz-adv-x="2082" d="M53 1229h211v-615h307v615h199v309l-717 -2v-307zM874 614h308v615h106v-615h307v615h107v-615h307v768l-154 154h-981v-922z" />
<glyph unicode="&#x25fc;" horiz-adv-x="1536" d="M0 0v1536h1536v-1536h-1536z" />
</font>
</defs>
</svg>
